Coordinates
version=1
nRows=43
nColumns=12
inDegrees=yes

Units are S.I. units (second, meters, Newtons, ...)
Angles are in degrees

endheader
time	SC_y	SC_z	SC_x	AC_y	AC_z	AC_x	GH_y	GH_z	GH_yy	EL_x	PS_y
       0.0              -51.58          36.22           77.0          65.87          4.163         -12.25          133.9          34.96          100.6          84.97          82.78
   0.02815              -51.58          36.21          76.99          65.86          4.162         -12.24          133.9          34.95          100.6          84.97          82.79
   0.05631              -51.57          36.21          76.98          65.86          4.161         -12.24          133.9          34.94          100.5          84.98           82.8
   0.08446              -51.57          36.21          76.97          65.85           4.16         -12.24          133.9          34.94          100.5          84.98          82.81
    0.1126              -51.56          36.21          76.96          65.85          4.159         -12.23          133.9          34.93          100.5          84.99          82.82
    0.1408              -51.56           36.2          76.95          65.85          4.157         -12.23          133.9          34.92          100.5           85.0          82.83
    0.1689              -51.55           36.2          76.93          65.84          4.156         -12.22          133.9          34.91          100.5          85.01          82.84
    0.1971              -51.54           36.2          76.92          65.84          4.155         -12.22          133.9           34.9          100.4          85.01          82.85
    0.2252              -51.53           36.2          76.91          65.83          4.153         -12.21          133.9           34.9          100.4          85.02          82.86
    0.2534              -51.53          36.19          76.89          65.83          4.151          -12.2          133.9          34.88          100.4          85.03          82.87
    0.2815              -51.52          36.19          76.88          65.82          4.149          -12.2          133.8          34.87          100.3          85.04          82.89
    0.3097              -51.51          36.18          76.86          65.81          4.148         -12.19          133.8          34.86          100.3          85.05           82.9
    0.3378               -51.5          36.18          76.84          65.81          4.145         -12.18          133.8          34.85          100.3          85.06          82.92
     0.366              -51.49          36.17          76.82           65.8          4.143         -12.18          133.8          34.84          100.2          85.08          82.93
    0.3942              -51.47          36.17           76.8          65.79          4.141         -12.17          133.8          34.82          100.2          85.09          82.95
    0.4223              -51.46          36.16          76.77          65.78          4.138         -12.16          133.8           34.8          100.2           85.1          82.97
    0.4505              -51.45          36.16          76.75          65.77          4.135         -12.15          133.7          34.79          100.1          85.12          82.99
    0.4786              -51.43          36.15          76.72          65.76          4.132         -12.13          133.7          34.77          100.1          85.14          83.02
    0.5068              -51.41          36.14          76.69          65.75          4.129         -12.12          133.7          34.75          99.99          85.16          83.04
    0.5349               -51.4          36.14          76.66          65.74          4.125         -12.11          133.7          34.72          99.93          85.18          83.07
    0.5631              -51.38          36.13          76.62          65.72          4.121         -12.09          133.6           34.7          99.86           85.2           83.1
    0.5912              -51.35          36.12          76.58          65.71          4.116         -12.08          133.6          34.67          99.78          85.22          83.14
    0.6194              -51.33          36.11          76.54          65.69          4.111         -12.06          133.6          34.64          99.69          85.25          83.17
    0.6475               -51.3           36.1          76.49          65.67          4.106         -12.04          133.5           34.6           99.6          85.28          83.22
    0.6757              -51.27          36.08          76.43          65.65            4.1         -12.02          133.5          34.57          99.49          85.32          83.26
    0.7038              -51.24          36.07          76.37          65.63          4.093         -11.99          133.4          34.52          99.38          85.35          83.31
     0.732               -51.2          36.05           76.3           65.6          4.085         -11.96          133.4          34.48          99.24           85.4          83.37
    0.7602              -51.15          36.03          76.22          65.57          4.076         -11.93          133.3          34.42           99.1          85.44          83.44
    0.7883              -51.11          36.01          76.14          65.54          4.067          -11.9          133.2          34.36          98.93           85.5          83.51
    0.8165              -51.05          35.99          76.04           65.5          4.056         -11.85          133.2           34.3          98.74          85.56           83.6
    0.8446              -50.99          35.96          75.93          65.46          4.043         -11.81          133.1          34.22          98.52          85.63          83.69
    0.8728              -50.92          35.93           75.8          65.41          4.028         -11.76          133.0          34.13          98.27          85.71           83.8
    0.9009              -50.83           35.9          75.65          65.35          4.012         -11.69          132.8          34.02          97.98           85.8          83.93
    0.9291              -50.74          35.86          75.47          65.28          3.992         -11.62          132.7           33.9          97.65          85.91          84.08
    0.9572              -50.62          35.81          75.27          65.21          3.969         -11.54          132.5          33.76          97.26          86.03          84.25
    0.9854              -50.49          35.75          75.03          65.11          3.942         -11.44          132.3           33.6           96.8          86.18          84.45
     1.014              -50.33          35.69          74.74           65.0           3.91         -11.32          132.1           33.4          96.25          86.36          84.69
     1.042              -50.14          35.61           74.4          64.87          3.872         -11.18          131.8          33.16          95.59          86.57          84.98
      1.07              -49.91          35.51          73.99          64.72          3.826         -11.01          131.5          32.88           94.8          86.82          85.34
     1.098              -49.63          35.39          73.49          64.52          3.769         -10.81          131.1          32.53          93.83          87.13          85.76
     1.126              -49.28          35.24          72.86          64.28          3.699         -10.55          130.5           32.1          92.63          87.52          86.29
     1.154              -48.85          35.06          72.09          63.99          3.612         -10.23          129.9          31.56          91.13           88.0          86.95
     1.182              -48.31          34.83          71.11          63.61          3.502         -9.831          129.1          30.89          89.25           88.6          87.78
